<?xml version="1.0" encoding="UTF-8"?>
<svg width="75px" height="75px" viewBox="0 0 75 75" version="1.1" xmlns="http://www.w3.org/2000/svg" xmlns:xlink="http://www.w3.org/1999/xlink">
    <!-- Generator: Sketch 52.6 (67491) - http://www.bohemiancoding.com/sketch -->
    <title>icon-driver</title>
    <desc>Created with Sketch.</desc>
    <g id="Welcome" stroke="none" stroke-width="1" fill="none" fill-rule="evenodd">
        <g id="Desktop" transform="translate(-268.000000, -293.000000)" fill-rule="nonzero">
            <g id="icon-driver" transform="translate(268.000000, 293.000000)">
                <circle id="Oval" fill="#DCC469" cx="37.5" cy="37.5" r="37.5"></circle>
                <g id="user-tie" transform="translate(16.304348, 16.956522)" fill="#000000">
                    <path d="M21.3586957,17.9347826 C26.3117782,17.9347826 30.326087,13.9204738 30.326087,8.9673913 C30.326087,4.01430876 26.3117782,0 21.3586957,0 C16.4056131,0 12.3913043,4.01430876 12.3913043,8.9673913 C12.3913043,13.9204738 16.4056131,17.9347826 21.3586957,17.9347826 Z M30.5515455,20.3969939 L25.9850543,38.6820652 L22.9279891,25.689538 L25.9850543,20.3396739 L16.8138587,20.3396739 L19.8709239,25.689538 L16.8138587,38.6820652 L12.2473675,20.3969939 C5.43584409,20.7218071 0,26.2913978 0,33.1793478 L0,37.1535326 C0,39.6851647 2.05396569,41.7391304 4.58559783,41.7391304 L38.2133152,41.7391304 C40.7449474,41.7391304 42.798913,39.6851647 42.798913,37.1535326 L42.798913,33.1793478 C42.798913,26.2913978 37.363069,20.7218071 30.5515455,20.3969939 Z" id="Shape"></path>
                </g>
            </g>
        </g>
    </g>
</svg>