<?xml version="1.0" encoding="UTF-8"?>
<svg width="75px" height="75px" viewBox="0 0 75 75" version="1.1" xmlns="http://www.w3.org/2000/svg" xmlns:xlink="http://www.w3.org/1999/xlink">
    <!-- Generator: Sketch 52.6 (67491) - http://www.bohemiancoding.com/sketch -->
    <title>icon-euro</title>
    <desc>Created with Sketch.</desc>
    <g id="Welcome" stroke="none" stroke-width="1" fill="none" fill-rule="evenodd">
        <g id="Desktop" transform="translate(-592.000000, -293.000000)">
            <g id="icon-euro" transform="translate(592.000000, 293.000000)">
                <circle id="Oval" fill="#DCC469" fill-rule="nonzero" cx="37.5" cy="37.5" r="37.5"></circle>
                <g id="euro-sign" transform="translate(16.000000, 14.000000)" fill="#000000">
                    <path d="M33.2899286,40.9033929 C33.1491429,40.1930357 32.4504643,39.7385357 31.7445,39.8995714 C30.5989286,40.1608929 28.8064286,40.4795357 26.8774286,40.4795357 C20.7956786,40.4795357 15.9564643,36.7520357 13.86375,31.3242857 L26.0447143,31.3242857 C26.6461816,31.3242845 27.1672711,30.9072971 27.2991429,30.3204643 L27.9819643,27.2818929 C28.1626071,26.4781071 27.5513571,25.7142857 26.7275357,25.7142857 L12.345,25.7142857 C12.2153571,24.1791429 12.1935,22.6835357 12.3596786,21.1880357 L28.0660714,21.1880357 C28.670234,21.1880638 29.192917,20.7674384 29.3221071,20.17725 L30.0198214,16.9892143 C30.1953214,16.1873571 29.5847143,15.4285714 28.7637857,15.4285714 L13.9482857,15.4285714 C16.1589643,10.6081071 20.6650714,7.38964286 26.5503214,7.38964286 C28.1023929,7.38964286 29.61075,7.63071429 30.6057857,7.83375 C31.2717857,7.96960714 31.9286786,7.56610714 32.106,6.90985714 L33.39075,2.15614286 C33.5859643,1.43389286 33.1266429,0.697285714 32.3915357,0.557892857 C31.0946786,0.312 29.0046429,0 26.7466071,0 C16.3340357,0 7.93178571,6.45557143 4.82946429,15.4285714 L1.28571429,15.4285714 C0.575678571,15.4285714 0,16.00425 0,16.7142857 L0,19.9023214 C0,20.6123571 0.575678571,21.1880357 1.28571429,21.1880357 L3.59667857,21.1880357 C3.48857143,22.6459286 3.47014286,24.3259286 3.57728571,25.7142857 L1.28571429,25.7142857 C0.575678571,25.7142857 0,26.2899643 0,27 L0,30.0385714 C0,30.7486071 0.575678571,31.3242857 1.28571429,31.3242857 L4.51221429,31.3242857 C7.19346429,41.0027143 15.564,48 26.7466071,48 C29.5645714,48 31.9496786,47.5131429 33.2931429,47.1655714 C33.9538929,46.9946786 34.3674643,46.3397143 34.2347143,45.6701786 L33.2899286,40.9033929 Z" id="Path"></path>
                </g>
            </g>
        </g>
    </g>
</svg>