<?xml version="1.0" encoding="UTF-8"?>
<svg width="75px" height="75px" viewBox="0 0 75 75" version="1.1" xmlns="http://www.w3.org/2000/svg" xmlns:xlink="http://www.w3.org/1999/xlink">
    <!-- Generator: Sketch 52.6 (67491) - http://www.bohemiancoding.com/sketch -->
    <title>icon-mobile</title>
    <desc>Created with Sketch.</desc>
    <g id="Welcome" stroke="none" stroke-width="1" fill="none" fill-rule="evenodd">
        <g id="Desktop" transform="translate(-106.000000, -500.000000)" fill-rule="nonzero">
            <g id="icon-mobile" transform="translate(106.000000, 500.000000)">
                <circle id="Oval" fill="#DCC469" cx="37.5" cy="37.5" r="37.5"></circle>
                <g id="mobile-alt" transform="translate(22.173913, 13.043478)" fill="#000000">
                    <path d="M25.9850543,0 L4.58559783,0 C2.05396569,0 0,2.05396569 0,4.58559783 L0,44.3274457 C0,46.8590778 2.05396569,48.9130435 4.58559783,48.9130435 L25.9850543,48.9130435 C28.5166865,48.9130435 30.5706522,46.8590778 30.5706522,44.3274457 L30.5706522,4.58559783 C30.5706522,2.05396569 28.5166865,0 25.9850543,0 Z M15.2853261,45.8559783 C13.5943869,45.8559783 12.2282609,44.4898522 12.2282609,42.798913 C12.2282609,41.1079738 13.5943869,39.7418478 15.2853261,39.7418478 C16.9762653,39.7418478 18.3423913,41.1079738 18.3423913,42.798913 C18.3423913,44.4898522 16.9762653,45.8559783 15.2853261,45.8559783 Z M25.9850543,35.5383832 C25.9850543,36.1689029 25.4691746,36.6847826 24.8386549,36.6847826 L5.73199728,36.6847826 C5.10147758,36.6847826 4.58559783,36.1689029 4.58559783,35.5383832 L4.58559783,5.73199728 C4.58559783,5.10147758 5.10147758,4.58559783 5.73199728,4.58559783 L24.8386549,4.58559783 C25.4691746,4.58559783 25.9850543,5.10147758 25.9850543,5.73199728 L25.9850543,35.5383832 Z" id="Shape"></path>
                </g>
            </g>
        </g>
    </g>
</svg>