<?xml version="1.0" encoding="UTF-8"?>
<svg width="75px" height="67px" viewBox="0 0 75 67" version="1.1" xmlns="http://www.w3.org/2000/svg" xmlns:xlink="http://www.w3.org/1999/xlink">
    <!-- Generator: Sketch 52.6 (67491) - http://www.bohemiancoding.com/sketch -->
    <title>exclamation-triangle</title>
    <desc>Created with Sketch.</desc>
    <g id="Welcome" stroke="none" stroke-width="1" fill="none" fill-rule="evenodd">
        <g id="Desktop" transform="translate(-627.000000, -78.000000)" fill="#DCC469" fill-rule="nonzero">
            <g id="exclamation-triangle" transform="translate(627.000000, 78.000000)">
                <path d="M74.1558594,57.2933594 C76.5592448,61.4592448 73.5424479,66.6666667 68.7421875,66.6666667 L6.25703125,66.6666667 C1.44752604,66.6666667 -1.55533854,61.4511719 0.843359375,57.2933594 L32.0863281,3.12304688 C34.4908854,-1.04479167 40.5134115,-1.03723958 42.9136719,3.12304688 L74.1558594,57.2933594 Z M37.5,46.09375 C34.1920573,46.09375 31.5104167,48.7753906 31.5104167,52.0833333 C31.5104167,55.391276 34.1920573,58.0729167 37.5,58.0729167 C40.8079427,58.0729167 43.4895833,55.391276 43.4895833,52.0833333 C43.4895833,48.7753906 40.8079427,46.09375 37.5,46.09375 Z M31.8134115,24.5643229 L32.7792969,42.2726563 C32.8244792,43.1013021 33.5096354,43.75 34.3394531,43.75 L40.6605469,43.75 C41.4903646,43.75 42.1755208,43.1013021 42.2207031,42.2726563 L43.1865885,24.5643229 C43.2354167,23.6692708 42.5227865,22.9166667 41.6264323,22.9166667 L33.3734375,22.9166667 C32.4770833,22.9166667 31.7645833,23.6692708 31.8134115,24.5643229 Z" id="Shape"></path>
            </g>
        </g>
    </g>
</svg>