<?xml version="1.0" encoding="UTF-8"?>
<svg width="75px" height="75px" viewBox="0 0 75 75" version="1.1" xmlns="http://www.w3.org/2000/svg" xmlns:xlink="http://www.w3.org/1999/xlink">
    <!-- Generator: Sketch 52.6 (67491) - http://www.bohemiancoding.com/sketch -->
    <title>icon-cc</title>
    <desc>Created with Sketch.</desc>
    <g id="Welcome" stroke="none" stroke-width="1" fill="none" fill-rule="evenodd">
        <g id="Desktop" transform="translate(-754.000000, -293.000000)" fill-rule="nonzero">
            <g id="icon-cc" transform="translate(754.000000, 293.000000)">
                <circle id="Oval" fill="#DCC469" cx="37.5" cy="37.5" r="37.5"></circle>
                <g id="credit-card" transform="translate(13.043478, 18.260870)">
                    <rect id="Rectangle" stroke="#000000" fill="#000000" x="0" y="0" width="48.9130435" height="38.4782609" rx="5"></rect>
                    <path d="M0.652173913,33.8431677 C0.652173913,36.042071 2.4292346,37.826087 4.61956522,37.826087 L44.2934783,37.826087 C46.4838089,37.826087 48.2608696,36.042071 48.2608696,33.8431677 L48.2608696,19.2391304 L0.652173913,19.2391304 L0.652173913,33.8431677 Z M16.5217391,28.2006988 C16.5217391,27.6530474 16.9680707,27.2049689 17.513587,27.2049689 L28.754529,27.2049689 C29.3000453,27.2049689 29.7463768,27.6530474 29.7463768,28.2006988 L29.7463768,31.5197981 C29.7463768,32.0674495 29.3000453,32.515528 28.754529,32.515528 L17.513587,32.515528 C16.9680707,32.515528 16.5217391,32.0674495 16.5217391,31.5197981 L16.5217391,28.2006988 Z M5.94202899,28.2006988 C5.94202899,27.6530474 6.38836051,27.2049689 6.93387681,27.2049689 L12.8849638,27.2049689 C13.4304801,27.2049689 13.8768116,27.6530474 13.8768116,28.2006988 L13.8768116,31.5197981 C13.8768116,32.0674495 13.4304801,32.515528 12.8849638,32.515528 L6.93387681,32.515528 C6.38836051,32.515528 5.94202899,32.0674495 5.94202899,31.5197981 L5.94202899,28.2006988 Z M48.2608696,4.63509317 L48.2608696,8.61801242 L0.652173913,8.61801242 L0.652173913,4.63509317 C0.652173913,2.43618983 2.4292346,0.652173913 4.61956522,0.652173913 L44.2934783,0.652173913 C46.4838089,0.652173913 48.2608696,2.43618983 48.2608696,4.63509317 Z" id="Shape" fill="#DCC469"></path>
                </g>
            </g>
        </g>
    </g>
</svg>