<?xml version="1.0" encoding="UTF-8"?>
<svg width="47px" height="75px" viewBox="0 0 47 75" version="1.1" xmlns="http://www.w3.org/2000/svg" xmlns:xlink="http://www.w3.org/1999/xlink">
    <!-- Generator: Sketch 52.6 (67491) - http://www.bohemiancoding.com/sketch -->
    <title>mobile-alt</title>
    <desc>Created with Sketch.</desc>
    <g id="Welcome" stroke="none" stroke-width="1" fill="none" fill-rule="evenodd">
        <g id="Desktop" transform="translate(-464.000000, -76.000000)" fill="#FFFFFF" fill-rule="nonzero">
            <g id="mobile-alt" transform="translate(464.000000, 76.000000)">
                <path d="M39.84375,0 L7.03125,0 C3.14941406,0 0,3.14941406 0,7.03125 L0,67.96875 C0,71.8505859 3.14941406,75 7.03125,75 L39.84375,75 C43.7255859,75 46.875,71.8505859 46.875,67.96875 L46.875,7.03125 C46.875,3.14941406 43.7255859,0 39.84375,0 Z M23.4375,70.3125 C20.8447266,70.3125 18.75,68.2177734 18.75,65.625 C18.75,63.0322266 20.8447266,60.9375 23.4375,60.9375 C26.0302734,60.9375 28.125,63.0322266 28.125,65.625 C28.125,68.2177734 26.0302734,70.3125 23.4375,70.3125 Z M39.84375,54.4921875 C39.84375,55.4589844 39.0527344,56.25 38.0859375,56.25 L8.7890625,56.25 C7.82226562,56.25 7.03125,55.4589844 7.03125,54.4921875 L7.03125,8.7890625 C7.03125,7.82226562 7.82226562,7.03125 8.7890625,7.03125 L38.0859375,7.03125 C39.0527344,7.03125 39.84375,7.82226562 39.84375,8.7890625 L39.84375,54.4921875 Z" id="Shape"></path>
            </g>
        </g>
    </g>
</svg>