<?xml version="1.0" encoding="UTF-8"?>
<svg width="75px" height="75px" viewBox="0 0 75 75" version="1.1" xmlns="http://www.w3.org/2000/svg" xmlns:xlink="http://www.w3.org/1999/xlink">
    <!-- Generator: Sketch 52.6 (67491) - http://www.bohemiancoding.com/sketch -->
    <title>dot-circle</title>
    <desc>Created with Sketch.</desc>
    <g id="Welcome" stroke="none" stroke-width="1" fill="none" fill-rule="evenodd">
        <g id="Desktop" transform="translate(-120.000000, -70.000000)" fill="#000000" fill-rule="nonzero">
            <g id="dot-circle" transform="translate(120.000000, 70.000000)">
                <path d="M37.5,7.25806452 C54.2135081,7.25806452 67.7419355,20.7839214 67.7419355,37.5 C67.7419355,54.2135081 54.2160786,67.7419355 37.5,67.7419355 C20.7864919,67.7419355 7.25806452,54.2160786 7.25806452,37.5 C7.25806452,20.7864919 20.7839214,7.25806452 37.5,7.25806452 Z M37.5,0 C16.7892641,0 0,16.7892641 0,37.5 C0,58.2107359 16.7892641,75 37.5,75 C58.2107359,75 75,58.2107359 75,37.5 C75,16.7892641 58.2107359,0 37.5,0 Z M37.5,25.4032258 C30.8191028,25.4032258 25.4032258,30.8191028 25.4032258,37.5 C25.4032258,44.1808972 30.8191028,49.5967742 37.5,49.5967742 C44.1808972,49.5967742 49.5967742,44.1808972 49.5967742,37.5 C49.5967742,30.8191028 44.1808972,25.4032258 37.5,25.4032258 Z" id="Shape"></path>
            </g>
        </g>
    </g>
</svg>