<?xml version="1.0" encoding="UTF-8"?>
<svg width="75px" height="75px" viewBox="0 0 75 75" version="1.1" xmlns="http://www.w3.org/2000/svg" xmlns:xlink="http://www.w3.org/1999/xlink">
    <!-- Generator: Sketch 52.6 (67491) - http://www.bohemiancoding.com/sketch -->
    <title>icon-clock</title>
    <desc>Created with Sketch.</desc>
    <g id="Welcome" stroke="none" stroke-width="1" fill="none" fill-rule="evenodd">
        <g id="Desktop" transform="translate(-106.000000, -293.000000)" fill-rule="nonzero">
            <g id="icon-clock" transform="translate(106.000000, 293.000000)">
                <circle id="Oval" fill="#DCC469" cx="37.5" cy="37.5" r="37.5"></circle>
                <g id="clock" transform="translate(13.043478, 13.043478)" fill="#000000">
                    <path d="M24.4565217,0 C10.9462658,0 0,10.9462658 0,24.4565217 C0,37.9667777 10.9462658,48.9130435 24.4565217,48.9130435 C37.9667777,48.9130435 48.9130435,37.9667777 48.9130435,24.4565217 C48.9130435,10.9462658 37.9667777,0 24.4565217,0 Z M24.4565217,44.1795231 C13.5595635,44.1795231 4.73352034,35.35348 4.73352034,24.4565217 C4.73352034,13.5595635 13.5595635,4.73352034 24.4565217,4.73352034 C35.35348,4.73352034 44.1795231,13.5595635 44.1795231,24.4565217 C44.1795231,35.35348 35.35348,44.1795231 24.4565217,44.1795231 Z M30.5509292,33.8841164 L22.1785151,27.7995705 C21.8728086,27.572756 21.6953015,27.2177419 21.6953015,26.8430049 L21.6953015,10.6504208 C21.6953015,9.99956171 22.2278226,9.46704067 22.8786816,9.46704067 L26.0343619,9.46704067 C26.6852209,9.46704067 27.2177419,9.99956171 27.2177419,10.6504208 L27.2177419,24.6241673 L33.8052244,29.4168566 C34.3377454,29.8014551 34.4462219,30.5410677 34.0616234,31.0735887 L32.2076613,33.6277174 C31.8230628,34.1503769 31.0834502,34.2687149 30.5509292,33.8841164 Z" id="Shape"></path>
                </g>
            </g>
        </g>
    </g>
</svg>