<?xml version="1.0" encoding="UTF-8"?>
<svg width="75px" height="75px" viewBox="0 0 75 75" version="1.1" xmlns="http://www.w3.org/2000/svg" xmlns:xlink="http://www.w3.org/1999/xlink">
    <!-- Generator: Sketch 52.6 (67491) - http://www.bohemiancoding.com/sketch -->
    <title>icon-service</title>
    <desc>Created with Sketch.</desc>
    <g id="Welcome" stroke="none" stroke-width="1" fill="none" fill-rule="evenodd">
        <g id="Desktop" transform="translate(-430.000000, -293.000000)">
            <g id="icon-service" transform="translate(430.000000, 293.000000)">
                <circle id="Oval" fill="#DCC469" fill-rule="nonzero" cx="37.5" cy="37.5" r="37.5"></circle>
                <rect id="Rectangle" fill-rule="nonzero" x="13.0434783" y="7.82608696" width="48.9130435" height="48.9130435"></rect>
                <g id="concierge-bell" transform="translate(27.391304, 15.000000)" fill="#000000" fill-rule="nonzero">
                    <path d="M17.9755435,4.06834239 L17.9755435,2.93478261 L18.9741848,2.93478261 C19.5259341,2.93478261 19.9728261,2.49701087 19.9728261,1.95652174 L19.9728261,0.97826087 C19.9728261,0.437771739 19.5259341,0 18.9741848,0 L12.982337,0 C12.4305876,0 11.9836957,0.437771739 11.9836957,0.97826087 L11.9836957,1.95652174 C11.9836957,2.49701087 12.4305876,2.93478261 12.982337,2.93478261 L13.9809783,2.93478261 L13.9809783,4.06834239 C7.20831776,5.0203125 1.99728261,10.7107337 1.99728261,17.6086957 L29.9592391,17.6086957 C29.9592391,10.7107337 24.748204,5.0203125 17.9755435,4.06834239 Z M30.9578804,19.5652174 L0.998641304,19.5652174 C0.446891984,19.5652174 0,20.0029891 0,20.5434783 L0,22.5 C0,23.0404891 0.446891984,23.4782609 0.998641304,23.4782609 L30.9578804,23.4782609 C31.5096298,23.4782609 31.9565217,23.0404891 31.9565217,22.5 L31.9565217,20.5434783 C31.9565217,20.0029891 31.5096298,19.5652174 30.9578804,19.5652174 Z" id="Shape"></path>
                </g>
                <g id="hand-holding" transform="translate(13.043478, 40.434783)" fill="#000000">
                    <path d="M48.0017642,0.687839674 C46.9997815,-0.220788043 45.4373678,-0.161345109 44.3844368,0.687839674 L36.5384028,6.96331522 C35.578877,7.73607337 34.3815926,8.15217391 33.1418513,8.15217391 L23.0965503,8.15217391 C22.3493089,8.15217391 21.7379297,7.54076087 21.7379297,6.79347826 C21.7379297,6.04619565 22.3493089,5.43478261 23.0965503,5.43478261 L29.7452998,5.43478261 C31.0954291,5.43478261 32.3521531,4.5091712 32.572929,3.17595109 C32.8531445,1.47758152 31.5454721,0 29.8896533,0 L16.3034472,0 C14.010775,0 11.7945251,0.789741848 10.0113356,2.23335598 L6.06284444,5.43478261 L1.3586206,5.43478261 C0.611379271,5.43478261 0,6.04619565 0,6.79347826 L0,14.9456522 C0,15.6929348 0.611379271,16.3043478 1.3586206,16.3043478 L31.6558601,16.3043478 C32.88711,16.3043478 34.0843944,15.8882473 35.0524116,15.1154891 L47.8913763,4.84035326 C49.1820658,3.81283967 49.2839624,1.84273098 48.0017642,0.687839674 Z" id="Path"></path>
                </g>
            </g>
        </g>
    </g>
</svg>